<svg width="1920" height="159" viewBox="0 0 1920 159" fill="none" xmlns="http://www.w3.org/2000/svg">
<path d="M3 25C3 25 115 51 181 59C247 67 367.5 76.5 473.5 67C520.368 62.7996 625 44.5 669.5 37.5C714 30.5 856.139 24.6735 876.5 23C913 20 930.5 18.5 930.5 18.5C930.5 18.5 945.5 2.50001 959 1.5C972.5 0.5 990.5 20.5 990.5 20.5L1110 24L1220 34C1220 34 1291.5 45.5 1378 58C1464.5 70.5 1529.5 71 1529.5 71C1529.5 71 1627 70.5 1665 67C1703 63.5 1818 44 1818 44L1919 22V158L0.5 155.5V22.5L3 25Z" fill="white" stroke="white"/>
</svg>
